Pacifico-Lightl.ufo
<glyph name="quotedbl" format="1">
  <advance width="1184"/>
  <unicode hex="0022"/>
  <outline>
    <contour>
      <point x="664" y="1160" type="curve"/>
      <point x="696.664" y="1160"/>
      <point x="723.052" y="1192.73"/>
      <point x="731.434" y="1234.64" type="curve"/>
      <point x="758.324" y="1377.05"/>
      <point x="777.227" y="1546.42"/>
      <point x="797.263" y="1750.91" type="curve"/>
      <point x="798" y="1753.87"/>
      <point x="798" y="1756.36"/>
      <point x="798" y="1762" type="curve"/>
      <point x="798" y="1807.55"/>
      <point x="764.506" y="1831"/>
      <point x="724" y="1831" type="curve"/>
      <point x="662.052" y="1831"/>
      <point x="601" y="1792.01"/>
      <point x="601" y="1728" type="curve"/>
      <point x="601" y="1559.65"/>
      <point x="609" y="1405.65"/>
      <point x="609" y="1233" type="curve"/>
      <point x="609" y="1188.79"/>
      <point x="630.108" y="1160"/>
    </contour>
    <contour>
      <point x="310" y="1160" type="curve"/>
      <point x="335.35" y="1160"/>
      <point x="361.668" y="1193.66"/>
      <point x="367.196" y="1233.12" type="curve"/>
      <point x="385.138" y="1375.66"/>
      <point x="403" y="1578.1"/>
      <point x="403" y="1747" type="curve"/>
      <point x="403" y="1803.82"/>
      <point x="369.386" y="1831"/>
      <point x="320" y="1831" type="curve"/>
      <point x="268.946" y="1831"/>
      <point x="217" y="1793.07"/>
      <point x="217" y="1728" type="curve"/>
      <point x="217" y="1560.56"/>
      <point x="238.835" y="1385.88"/>
      <point x="254.807" y="1236.1" type="curve"/>
      <point x="260.988" y="1186.65"/>
      <point x="276.232" y="1160"/>
    </contour>
  </outline>
</glyph>
<glyph name="numbersign" format="1">
  <advance width="1248"/>
  <unicode hex="0023"/>
  <outline>
    <contour>
      <point x="626" y="639" type="curve"/>
      <point x="678" y="759"/>
      <point x="726" y="872"/>
      <point x="775" y="989" type="curve"/>
      <point x="1119" y="989" type="line"/>
      <point x="1029" y="736"/>
      <point x="1016" y="698"/>
      <point x="996" y="641" type="curve"/>
      <point x="931" y="639"/>
      <point x="891" y="639"/>
    </contour>
    <contour>
      <point x="235" y="-33" type="curve"/>
      <point x="295" y="-33"/>
      <point x="322" y="-5"/>
      <point x="345" y="41" type="curve"/>
      <point x="416" y="181"/>
      <point x="481" y="319"/>
      <point x="546" y="460" type="curve"/>
      <point x="675" y="460"/>
      <point x="808" y="462"/>
      <point x="931" y="463" type="curve"/>
      <point x="794" y="70"/>
      <point x="797" y="81"/>
      <point x="797" y="39" type="curve"/>
      <point x="797" y="-11"/>
      <point x="823" y="-29"/>
      <point x="880" y="-29" type="curve"/>
      <point x="937" y="-29"/>
      <point x="963" y="-3"/>
      <point x="982" y="43" type="curve"/>
      <point x="1039" y="184"/>
      <point x="1093" y="322"/>
      <point x="1145" y="463" type="curve"/>
      <point x="1167" y="463" type="line"/>
      <point x="1298" y="463"/>
      <point x="1393" y="493"/>
      <point x="1393" y="603" type="curve"/>
      <point x="1393" y="629"/>
      <point x="1373" y="640"/>
      <point x="1334" y="643" type="curve"/>
      <point x="1209" y="643" type="line"/>
      <point x="1251" y="759"/>
      <point x="1290" y="873"/>
      <point x="1327" y="989" type="curve"/>
      <point x="1514" y="987"/>
      <point x="1609" y="1011"/>
      <point x="1609" y="1131" type="curve"/>
      <point x="1609" y="1160"/>
      <point x="1594" y="1169"/>
      <point x="1552" y="1169" type="curve"/>
      <point x="1391" y="1169" type="line"/>
      <point x="1416" y="1328"/>
      <point x="1520" y="1486"/>
      <point x="1520" y="1570" type="curve"/>
      <point x="1520" y="1611"/>
      <point x="1511" y="1631"/>
      <point x="1478" y="1631" type="curve"/>
      <point x="1271" y="1631"/>
      <point x="1250" y="1342"/>
      <point x="1183" y="1169" type="curve"/>
      <point x="1074" y="1169"/>
      <point x="958" y="1167"/>
      <point x="851" y="1168" type="curve"/>
      <point x="882" y="1249"/>
      <point x="1017" y="1536"/>
      <point x="1017" y="1566" type="curve"/>
      <point x="1017" y="1610"/>
      <point x="1012" y="1627"/>
      <point x="956" y="1627" type="curve"/>
      <point x="892" y="1627"/>
      <point x="825" y="1565"/>
      <point x="798" y="1497" type="curve"/>
      <point x="649" y="1168" type="line"/>
      <point x="465" y="1168"/>
      <point x="355" y="1169"/>
      <point x="355" y="1074" type="curve"/>
      <point x="355" y="1001"/>
      <point x="402" y="986"/>
      <point x="570" y="989" type="curve"/>
      <point x="415" y="642" type="line"/>
      <point x="256" y="643"/>
      <point x="167" y="635"/>
      <point x="167" y="549" type="curve"/>
      <point x="167" y="487"/>
      <point x="282" y="459"/>
      <point x="355" y="467" type="curve"/>
      <point x="324" y="401"/>
      <point x="213" y="214"/>
      <point x="173" y="66" type="curve"/>
      <point x="149" y="-21"/>
      <point x="180" y="-33"/>
    </contour>
  </outline>
</glyph>
<glyph name="hyphen" format="1">
  <advance width="974"/>
  <unicode hex="002D"/>
  <outline>
    <contour>
      <point x="360" y="504" type="curve"/>
      <point x="360.173" y="504"/>
      <point x="360.573" y="504.093"/>
      <point x="361.228" y="504.223" type="curve"/>
      <point x="803.884" y="546.958" type="line"/>
      <point x="862.469" y="551.33"/>
      <point x="896" y="591.511"/>
      <point x="896" y="628" type="curve"/>
      <point x="896" y="661"/>
      <point x="872" y="689"/>
      <point x="798.77" y="689.02" type="curve"/>
      <point x="370.671" y="667.015" type="line"/>
      <point x="313.516" y="664.456"/>
      <point x="288" y="625.531"/>
      <point x="288" y="585" type="curve"/>
      <point x="288" y="543.51"/>
      <point x="314.249" y="504"/>
    </contour>
  </outline>
</glyph>
<glyph name="C" format="1">
  <advance width="1648"/>
  <unicode hex="0043"/>
  <outline>
    <contour>
      <point x="775" y="-272" type="curve"/>
      <point x="1138" y="-272"/>
      <point x="1533" y="-41"/>
      <point x="1669" y="306" type="curve"/>
      <point x="1671" y="313"/>
      <point x="1670" y="318"/>
      <point x="1668" y="323" type="curve"/>
      <point x="1666" y="328"/>
      <point x="1659" y="333"/>
      <point x="1649" y="333" type="curve"/>
      <point x="1641" y="333"/>
      <point x="1633" y="328"/>
      <point x="1630" y="325" type="curve"/>
      <point x="1419" y="119"/>
      <point x="1209" y="-128"/>
      <point x="838" y="-128" type="curve"/>
      <point x="563" y="-128"/>
      <point x="389" y="84"/>
      <point x="392" y="502.333" type="curve"/>
      <point x="396.131" y="966.867"/>
      <point x="718" y="1695"/>
      <point x="1187" y="1695" type="curve"/>
      <point x="1354" y="1695"/>
      <point x="1451" y="1595"/>
      <point x="1451" y="1431" type="curve"/>
      <point x="1451" y="1200"/>
      <point x="1262.32" y="956.999"/>
      <point x="1033" y="956.999" type="curve"/>
      <point x="937.208" y="956.999"/>
      <point x="903" y="950"/>
      <point x="903" y="888" type="curve"/>
      <point x="903" y="831"/>
      <point x="928.015" y="826"/>
      <point x="1049" y="826" type="curve"/>
      <point x="1331.62" y="826"/>
      <point x="1595" y="1156"/>
      <point x="1595" y="1450" type="curve"/>
      <point x="1595" y="1682"/>
      <point x="1447" y="1839"/>
      <point x="1222" y="1839" type="curve"/>
      <point x="642" y="1839"/>
      <point x="194.704" y="1118.09"/>
      <point x="183.994" y="481.327" type="curve"/>
      <point x="175" y="-71"/>
      <point x="476" y="-272"/>
    </contour>
  </outline>
</glyph>
<glyph name="G" format="1">
  <advance width="2047"/>
  <unicode hex="0047"/>
  <outline>
    <contour>
      <point x="884" y="-909" type="curve" smooth="yes"/>
      <point x="1471" y="-1129"/>
      <point x="1815" y="-714"/>
      <point x="2012" y="356" type="curve" smooth="yes"/>
      <point x="2051" y="568"/>
      <point x="2011" y="602"/>
      <point x="1679" y="602" type="curve" smooth="yes"/>
      <point x="1601" y="602"/>
      <point x="1542" y="577"/>
      <point x="1542" y="522" type="curve" smooth="yes"/>
      <point x="1542" y="470"/>
      <point x="1575" y="456"/>
      <point x="1672" y="456" type="curve" smooth="yes"/>
      <point x="1822" y="456"/>
      <point x="1879" y="435"/>
      <point x="1855" y="330" type="curve"/>
      <point x="1844" y="292" type="line"/>
      <point x="1509" y="0"/>
      <point x="440" y="-277"/>
      <point x="440" y="590" type="curve" smooth="yes"/>
      <point x="440" y="1784"/>
      <point x="1825" y="2127"/>
      <point x="1825" y="1511" type="curve" smooth="yes"/>
      <point x="1825" y="1405"/>
      <point x="1862" y="1393"/>
      <point x="1922" y="1393" type="curve" smooth="yes"/>
      <point x="1989" y="1393"/>
      <point x="2026" y="1412"/>
      <point x="2026" y="1502" type="curve" smooth="yes"/>
      <point x="2026" y="2402"/>
      <point x="244" y="1985"/>
      <point x="244" y="558" type="curve" smooth="yes"/>
      <point x="244" y="-580"/>
      <point x="1651" y="-91"/>
      <point x="1815" y="115" type="curve"/>
      <point x="1573" y="-910"/>
      <point x="1258" y="-904"/>
      <point x="917" y="-751" type="curve"/>
      <point x="831" y="-720"/>
      <point x="725" y="-850"/>
    </contour>
  </outline>
</glyph>
<glyph name="K" format="1">
  <advance width="1642"/>
  <unicode hex="004B"/>
  <outline>
    <contour>
      <point x="1590" y="-303" type="curve"/>
      <point x="1682" y="-303"/>
      <point x="1863" y="-267"/>
      <point x="1891" y="-207" type="curve"/>
      <point x="1910" y="-160"/>
      <point x="1880" y="-131"/>
      <point x="1862" y="-131" type="curve"/>
      <point x="1813" y="-131"/>
      <point x="1742" y="-167"/>
      <point x="1673" y="-167" type="curve"/>
      <point x="1285" y="-185"/>
      <point x="1273" y="257"/>
      <point x="1082" y="896" type="curve"/>
      <point x="1606" y="1162"/>
      <point x="1889" y="1553"/>
      <point x="1969" y="1730" type="curve"/>
      <point x="2003" y="1809"/>
      <point x="2004" y="1870"/>
      <point x="1941" y="1870" type="curve"/>
      <point x="1894" y="1870"/>
      <point x="1869" y="1806"/>
      <point x="1794" y="1705" type="curve"/>
      <point x="1620" y="1472"/>
      <point x="1332" y="1226"/>
      <point x="923" y="998" type="curve"/>
      <point x="971" y="1302"/>
      <point x="972" y="1549"/>
      <point x="972" y="1810" type="curve"/>
      <point x="972" y="1851"/>
      <point x="946" y="1866"/>
      <point x="886" y="1866" type="curve"/>
      <point x="455" y="1866"/>
      <point x="3" y="1709"/>
      <point x="3" y="1298" type="curve"/>
      <point x="3" y="1244"/>
      <point x="54" y="1205"/>
      <point x="112" y="1212" type="curve"/>
      <point x="192" y="1221"/>
      <point x="211" y="1242"/>
      <point x="211" y="1275" type="curve"/>
      <point x="211" y="1596"/>
      <point x="501" y="1765"/>
      <point x="833" y="1744" type="curve"/>
      <point x="763" y="350"/>
      <point x="479" y="-150"/>
      <point x="155" y="-150" type="curve"/>
      <point x="84" y="-150"/>
      <point x="44" y="-123"/>
      <point x="7" y="-123" type="curve"/>
      <point x="-28" y="-123"/>
      <point x="-80" y="-183"/>
      <point x="-80" y="-226" type="curve"/>
      <point x="-80" y="-283"/>
      <point x="106" y="-303"/>
      <point x="190" y="-303" type="curve"/>
      <point x="630" y="-303"/>
      <point x="791" y="271"/>
      <point x="905" y="885" type="curve"/>
      <point x="1115" y="40"/>
      <point x="1158" y="-303"/>
    </contour>
  </outline>
</glyph>
<glyph name="asciicircum" format="1">
  <advance width="1089"/>
  <unicode hex="005E"/>
  <outline>
    <contour>
      <point x="933" y="538" type="curve"/>
      <point x="988.665" y="538"/>
      <point x="1004.53" y="620.405"/>
      <point x="985.146" y="668.858" type="curve"/>
      <point x="984.955" y="669.346" type="line"/>
      <point x="917.341" y="847.332"/>
      <point x="838.009" y="1017.89"/>
      <point x="758.296" y="1175.33" type="curve"/>
      <point x="717.501" y="1255.02"/>
      <point x="670.254" y="1314"/>
      <point x="567" y="1314" type="curve"/>
      <point x="466.428" y="1314"/>
      <point x="421.965" y="1214.81"/>
      <point x="370.432" y="1117.81" type="curve"/>
      <point x="319.507" y="1022.95"/>
      <point x="263.596" y="916.12"/>
      <point x="212.664" y="818.251" type="curve"/>
      <point x="177.854" y="750.742"/>
      <point x="123" y="690.402"/>
      <point x="123" y="621" type="curve"/>
      <point x="123" y="571.373"/>
      <point x="172.968" y="541"/>
      <point x="194" y="541" type="curve"/>
      <point x="237.98" y="541"/>
      <point x="273" y="582"/>
      <point x="291.435" y="616.953" type="curve"/>
      <point x="310" y="652"/>
      <point x="496" y="1098"/>
      <point x="567" y="1176" type="curve"/>
      <point x="622" y="1098"/>
      <point x="790" y="703"/>
      <point x="811" y="654" type="curve" smooth="yes"/>
      <point x="833.751" y="602.998"/>
      <point x="876.583" y="538"/>
    </contour>
  </outline>
</glyph>
<glyph name="grave" format="1">
  <advance width="609"/>
  <unicode hex="0060"/>
  <outline>
    <contour>
      <point x="405" y="1202" type="curve"/>
      <point x="433" y="1202"/>
      <point x="441" y="1245"/>
      <point x="426" y="1274" type="curve"/>
      <point x="356" y="1426"/>
      <point x="282" y="1582"/>
      <point x="215" y="1737" type="curve"/>
      <point x="203" y="1765"/>
      <point x="182" y="1782"/>
      <point x="148" y="1782" type="curve"/>
      <point x="85" y="1782"/>
      <point x="33" y="1737"/>
      <point x="33" y="1676" type="curve"/>
      <point x="33" y="1652"/>
      <point x="41" y="1629"/>
      <point x="64" y="1597" type="curve"/>
      <point x="125" y="1513"/>
      <point x="215" y="1405"/>
      <point x="282" y="1323" type="curve"/>
      <point x="319" y="1277"/>
      <point x="356" y="1202"/>
    </contour>
    <contour>
      <point x="398" y="939" type="move" name="_top"/>
    </contour>
  </outline>
</glyph>
<glyph name="d" format="1">
  <advance width="1128"/>
  <unicode hex="0064"/>
  <outline>
    <contour>
      <point x="782" y="619" type="curve"/>
      <point x="869" y="1027"/>
      <point x="1026" y="1740"/>
      <point x="1241" y="1740" type="curve"/>
      <point x="1279" y="1740"/>
      <point x="1316" y="1717"/>
      <point x="1316" y="1649" type="curve"/>
      <point x="1316" y="1364"/>
      <point x="1076.59" y="1013.07"/>
    </contour>
    <contour>
      <point x="291" y="-16" type="curve"/>
      <point x="457" y="-16"/>
      <point x="561" y="94"/>
      <point x="616" y="212" type="curve"/>
      <point x="642" y="35"/>
      <point x="745" y="-8"/>
      <point x="875" y="-8" type="curve"/>
      <point x="1081" y="-8"/>
      <point x="1214" y="123"/>
      <point x="1315" y="239" type="curve"/>
      <point x="1324" y="250"/>
      <point x="1337" y="271"/>
      <point x="1337" y="290" type="curve"/>
      <point x="1337" y="324"/>
      <point x="1311" y="346"/>
      <point x="1283" y="345" type="curve"/>
      <point x="1265" y="345"/>
      <point x="1258" y="337"/>
      <point x="1242" y="321" type="curve"/>
      <point x="1186" y="257"/>
      <point x="1055" y="135"/>
      <point x="914" y="135" type="curve"/>
      <point x="809" y="135"/>
      <point x="750" y="220"/>
      <point x="776" y="436" type="curve"/>
      <point x="1026" y="771"/>
      <point x="1468" y="1312"/>
      <point x="1468" y="1757" type="curve"/>
      <point x="1468" y="1843"/>
      <point x="1403" y="1921"/>
      <point x="1305" y="1921" type="curve"/>
      <point x="1033" y="1921"/>
      <point x="820" y="1509"/>
      <point x="695" y="930" type="curve"/>
      <point x="409" y="1063"/>
      <point x="64" y="614"/>
      <point x="64" y="253" type="curve"/>
      <point x="64" y="88"/>
      <point x="159" y="-16"/>
    </contour>
    <contour>
      <point x="351" y="118" type="curve"/>
      <point x="306" y="118"/>
      <point x="215" y="141"/>
      <point x="215" y="283" type="curve"/>
      <point x="215" y="528"/>
      <point x="426" y="894"/>
      <point x="684" y="820" type="curve"/>
      <point x="626" y="533" type="line"/>
      <point x="581" y="334"/>
      <point x="465" y="118"/>
    </contour>
  </outline>
</glyph>
<glyph name="g" format="1">
  <advance width="1012"/>
  <unicode hex="0067"/>
  <outline>
    <contour>
      <point x="136" y="-940" type="curve"/>
      <point x="311.5" y="-940"/>
      <point x="437" y="-847.25"/>
      <point x="530.875" y="-690.5" type="curve" smooth="yes"/>
      <point x="624.75" y="-533.75"/>
      <point x="687" y="-313"/>
      <point x="736" y="-57" type="curve"/>
      <point x="947" y="88"/>
      <point x="1044" y="166"/>
      <point x="1183" y="236" type="curve"/>
      <point x="1272" y="299"/>
      <point x="1217" y="374"/>
      <point x="1150" y="360" type="curve"/>
      <point x="1004" y="289"/>
      <point x="901" y="192"/>
      <point x="744" y="74" type="curve"/>
      <point x="914" y="826" type="line"/>
      <point x="924" y="875"/>
      <point x="850" y="903"/>
      <point x="798" y="880" type="curve"/>
      <point x="798" y="880"/>
      <point x="830" y="948"/>
      <point x="675" y="951" type="curve"/>
      <point x="373" y="959"/>
      <point x="73" y="628"/>
      <point x="73" y="277" type="curve"/>
      <point x="73" y="134"/>
      <point x="166" y="26"/>
      <point x="313" y="26" type="curve"/>
      <point x="403" y="26"/>
      <point x="568" y="62"/>
      <point x="633" y="192" type="curve"/>
      <point x="633" y="192"/>
      <point x="586" y="-7"/>
      <point x="586" y="-7" type="curve"/>
      <point x="467.5" y="-97"/>
      <point x="308" y="-217.5"/>
      <point x="178.125" y="-346.25" type="curve" smooth="yes"/>
      <point x="48.25" y="-475"/>
      <point x="-52" y="-612"/>
      <point x="-52" y="-735" type="curve"/>
      <point x="-52" y="-855"/>
      <point x="1" y="-940"/>
    </contour>
    <contour>
      <point x="147" y="-812" type="curve"/>
      <point x="94" y="-812"/>
      <point x="75" y="-762"/>
      <point x="75" y="-727" type="curve"/>
      <point x="75" y="-563"/>
      <point x="358" y="-321"/>
      <point x="563" y="-151" type="curve"/>
      <point x="504" y="-402"/>
      <point x="410" y="-812"/>
    </contour>
    <contour>
      <point x="387" y="158" type="curve"/>
      <point x="280" y="158"/>
      <point x="254" y="252"/>
      <point x="254" y="320" type="curve"/>
      <point x="254" y="526"/>
      <point x="452" y="855"/>
      <point x="742" y="826" type="curve"/>
      <point x="642" y="462" type="line"/>
      <point x="616" y="368"/>
      <point x="551" y="158"/>
    </contour>
  </outline>
</glyph>
<glyph name="p" format="1">
  <advance width="984"/>
  <unicode hex="0070"/>
  <outline>
    <contour>
      <point x="856" y="360" type="curve"/>
      <point x="959" y="360"/>
      <point x="1149" y="438"/>
      <point x="1237" y="557" type="curve"/>
      <point x="1248" y="576"/>
      <point x="1257" y="596"/>
      <point x="1262" y="620" type="curve"/>
      <point x="1267" y="651"/>
      <point x="1256" y="692"/>
      <point x="1232" y="678" type="curve"/>
      <point x="1223" y="672"/>
      <point x="1198" y="652"/>
      <point x="1180" y="637" type="curve"/>
      <point x="1064" y="541"/>
      <point x="925" y="516"/>
      <point x="877" y="516" type="curve"/>
      <point x="842" y="516"/>
      <point x="810" y="681"/>
      <point x="744" y="681" type="curve"/>
      <point x="739" y="681"/>
      <point x="718" y="687"/>
      <point x="686" y="645" type="curve"/>
      <point x="648" y="592"/>
      <point x="650" y="534"/>
      <point x="662" y="488" type="curve"/>
      <point x="683" y="409"/>
      <point x="729" y="360"/>
    </contour>
    <contour>
      <point x="16" y="-500" type="curve"/>
      <point x="63" y="-500"/>
      <point x="140" y="-451"/>
      <point x="146" y="-421" type="curve"/>
      <point x="173" y="-321"/>
      <point x="232" y="76"/>
      <point x="240" y="94" type="curve"/>
      <point x="297.009" y="36.9906"/>
      <point x="391" y="0"/>
      <point x="446" y="0" type="curve"/>
      <point x="718" y="0"/>
      <point x="889" y="341"/>
      <point x="889" y="616" type="curve"/>
      <point x="889" y="793"/>
      <point x="824" y="953"/>
      <point x="600" y="960" type="curve"/>
      <point x="253" y="973"/>
      <point x="146" y="509"/>
      <point x="94" y="251" type="curve"/>
      <point x="80" y="180"/>
      <point x="36" y="-82"/>
      <point x="-2" y="-345" type="curve"/>
      <point x="-2" y="-352"/>
      <point x="-26" y="-500"/>
    </contour>
    <contour>
      <point x="462" y="152" type="curve"/>
      <point x="405" y="152"/>
      <point x="337" y="162"/>
      <point x="257" y="227" type="curve"/>
      <point x="272" y="325"/>
      <point x="322" y="830"/>
      <point x="598" y="830" type="curve"/>
      <point x="701" y="830"/>
      <point x="746" y="685"/>
      <point x="746" y="558" type="curve"/>
      <point x="746" y="370"/>
      <point x="643" y="152"/>
    </contour>
  </outline>
</glyph>
<glyph name="v" format="1">
  <advance width="907"/>
  <unicode hex="0076"/>
  <outline>
    <contour>
      <point x="271" y="-5" type="curve"/>
      <point x="286" y="-5"/>
      <point x="306" y="4"/>
      <point x="327" y="22" type="curve"/>
      <point x="433" y="109"/>
      <point x="583" y="328"/>
      <point x="635" y="455" type="curve"/>
      <point x="635" y="348"/>
      <point x="722.464" y="241"/>
      <point x="846" y="241" type="curve"/>
      <point x="928.111" y="241"/>
      <point x="1040.47" y="286.878"/>
      <point x="1099.32" y="322.578" type="curve"/>
      <point x="1120.41" y="335.501"/>
      <point x="1132" y="361.342"/>
      <point x="1132" y="387" type="curve"/>
      <point x="1132" y="417"/>
      <point x="1123" y="425"/>
      <point x="1110.3" y="416.813" type="curve"/>
      <point x="1101.61" y="411.192"/>
      <point x="1091.75" y="405.183"/>
      <point x="1080.99" y="399.07" type="curve" smooth="yes"/>
      <point x="1026.89" y="368.352"/>
      <point x="949.851" y="335"/>
      <point x="883" y="335" type="curve"/>
      <point x="764.932" y="335"/>
      <point x="719" y="415"/>
      <point x="719" y="528" type="curve"/>
      <point x="729.924" y="650.504"/>
      <point x="796.861" y="813.192"/>
      <point x="827.649" y="883.519" type="curve" smooth="yes"/>
      <point x="836.318" y="903.323"/>
      <point x="842.121" y="915.803"/>
      <point x="843" y="918" type="curve"/>
      <point x="854" y="945"/>
      <point x="787" y="960"/>
      <point x="741" y="960" type="curve"/>
      <point x="712.095" y="960"/>
      <point x="676" y="939"/>
      <point x="655.262" y="896.554" type="curve" smooth="yes"/>
      <point x="518" y="618"/>
      <point x="408" y="384"/>
      <point x="318" y="221" type="curve"/>
      <point x="307" y="212" type="line"/>
      <point x="271.098" y="380.612"/>
      <point x="326.853" y="646.635"/>
      <point x="326.438" y="812.439" type="curve" smooth="yes"/>
      <point x="326.205" y="905.255"/>
      <point x="308.37" y="966.666"/>
      <point x="247" y="962" type="curve"/>
      <point x="175" y="962"/>
      <point x="164" y="896"/>
      <point x="155" y="808" type="curve"/>
      <point x="146" y="733"/>
      <point x="137" y="606"/>
      <point x="137" y="500" type="curve"/>
      <point x="137" y="263"/>
      <point x="139" y="-5"/>
    </contour>
  </outline>
</glyph>
<glyph name="y" format="1">
  <advance width="1013"/>
  <unicode hex="0079"/>
  <outline>
    <contour>
      <point x="178" y="-941" type="curve" smooth="yes"/>
      <point x="596" y="-941"/>
      <point x="708" y="-413"/>
      <point x="774" y="-62" type="curve"/>
      <point x="977" y="107"/>
      <point x="1091" y="177"/>
      <point x="1230" y="222" type="curve"/>
      <point x="1291" y="235"/>
      <point x="1256" y="363"/>
      <point x="1189" y="349" type="curve" smooth="yes"/>
      <point x="1084" y="326"/>
      <point x="965" y="234"/>
      <point x="791" y="96" type="curve"/>
      <point x="813" y="253"/>
      <point x="840" y="305"/>
      <point x="861" y="425" type="curve" smooth="yes"/>
      <point x="887" y="569"/>
      <point x="967" y="799"/>
      <point x="967" y="929" type="curve" smooth="yes"/>
      <point x="967" y="946"/>
      <point x="951" y="955"/>
      <point x="918" y="955" type="curve" smooth="yes"/>
      <point x="836" y="955"/>
      <point x="797" y="903"/>
      <point x="778" y="836" type="curve"/>
      <point x="778" y="836"/>
      <point x="685" y="474"/>
      <point x="685" y="474" type="curve"/>
      <point x="660" y="381"/>
      <point x="591" y="170"/>
      <point x="438" y="170" type="curve" smooth="yes"/>
      <point x="336" y="170"/>
      <point x="314" y="265"/>
      <point x="314" y="332" type="curve" smooth="yes"/>
      <point x="314" y="466"/>
      <point x="373" y="626"/>
      <point x="422" y="778" type="curve" smooth="yes"/>
      <point x="445" y="842"/>
      <point x="464" y="880"/>
      <point x="464" y="928" type="curve" smooth="yes"/>
      <point x="464" y="953"/>
      <point x="435" y="970"/>
      <point x="395" y="970" type="curve" smooth="yes"/>
      <point x="335" y="970"/>
      <point x="308" y="934"/>
      <point x="286" y="894" type="curve" smooth="yes"/>
      <point x="205" y="741"/>
      <point x="130" y="516"/>
      <point x="130" y="289" type="curve" smooth="yes"/>
      <point x="130" y="146"/>
      <point x="197" y="-2"/>
      <point x="346" y="-2" type="curve" smooth="yes"/>
      <point x="490.811" y="-2"/>
      <point x="625.232" y="89.6227"/>
      <point x="656.543" y="176.477" type="curve"/>
      <point x="595" y="-12" type="line"/>
      <point x="437" y="-132"/>
      <point x="278" y="-240"/>
      <point x="154" y="-380" type="curve" smooth="yes"/>
      <point x="75.9999" y="-468"/>
      <point x="-34.0001" y="-643"/>
      <point x="-34.0001" y="-772" type="curve" smooth="yes"/>
      <point x="-34.0001" y="-892"/>
      <point x="42.9999" y="-941"/>
    </contour>
    <contour>
      <point x="187" y="-801" type="curve" smooth="yes"/>
      <point x="138" y="-794"/>
      <point x="118" y="-750"/>
      <point x="118" y="-714" type="curve" smooth="yes"/>
      <point x="118" y="-589"/>
      <point x="345" y="-313"/>
      <point x="586" y="-169" type="curve"/>
      <point x="553" y="-285"/>
      <point x="470" y="-843"/>
    </contour>
  </outline>
</glyph>
<glyph name="z" format="1">
  <advance width="743"/>
  <unicode hex="007A"/>
  <outline>
    <contour>
      <point x="122" y="0" type="curve"/>
      <point x="152" y="0"/>
      <point x="190" y="54"/>
      <point x="223" y="77" type="curve"/>
      <point x="301" y="43"/>
      <point x="414" y="0"/>
      <point x="503" y="0" type="curve"/>
      <point x="655" y="0"/>
      <point x="956" y="95"/>
      <point x="956" y="233" type="curve"/>
      <point x="956" y="255"/>
      <point x="942" y="276"/>
      <point x="924" y="276" type="curve"/>
      <point x="902" y="276"/>
      <point x="884" y="266"/>
      <point x="864" y="254" type="curve"/>
      <point x="786" y="208"/>
      <point x="681" y="124"/>
      <point x="540" y="124" type="curve"/>
      <point x="428" y="124"/>
      <point x="347" y="199"/>
      <point x="282" y="185" type="curve"/>
      <point x="283" y="184" type="line"/>
      <point x="391" y="350"/>
      <point x="593" y="608"/>
      <point x="723" y="800" type="curve"/>
      <point x="788" y="816"/>
      <point x="799" y="822"/>
      <point x="799" y="876" type="curve"/>
      <point x="799" y="925"/>
      <point x="788" y="939"/>
      <point x="747" y="939" type="curve"/>
      <point x="701" y="939"/>
      <point x="648" y="927"/>
      <point x="591" y="927" type="curve"/>
      <point x="453" y="927"/>
      <point x="405" y="964"/>
      <point x="292" y="964" type="curve"/>
      <point x="202" y="964"/>
      <point x="182" y="919"/>
      <point x="182" y="803" type="curve"/>
      <point x="182" y="792"/>
      <point x="182" y="764"/>
      <point x="223" y="780" type="curve"/>
      <point x="262" y="796"/>
      <point x="299" y="817"/>
      <point x="369" y="817" type="curve"/>
      <point x="415" y="817"/>
      <point x="506" y="809"/>
      <point x="566" y="793" type="curve"/>
      <point x="111" y="206" type="line"/>
      <point x="74" y="152"/>
      <point x="35" y="107"/>
      <point x="35" y="80" type="curve"/>
      <point x="35" y="44"/>
      <point x="64" y="0"/>
    </contour>
  </outline>
</glyph>
<glyph name="currency" format="1">
  <advance width="1472"/>
  <unicode hex="00A4"/>
  <outline>
    <contour>
      <point x="696" y="585" type="curve"/>
      <point x="528" y="585"/>
      <point x="442" y="706"/>
      <point x="442" y="901" type="curve"/>
      <point x="442" y="1156.68"/>
      <point x="576" y="1410"/>
      <point x="839" y="1410" type="curve"/>
      <point x="983" y="1410"/>
      <point x="1061" y="1295"/>
      <point x="1046" y="1125" type="curve"/>
      <point x="1046" y="890.523"/>
      <point x="945" y="585"/>
    </contour>
    <contour>
      <point x="1117" y="347" type="curve"/>
      <point x="1148" y="347"/>
      <point x="1187" y="387"/>
      <point x="1187" y="420" type="curve"/>
      <point x="1186" y="435"/>
      <point x="1172" y="458"/>
      <point x="1139" y="489" type="curve"/>
      <point x="1017" y="598" type="line"/>
      <point x="1206" y="788"/>
      <point x="1277" y="1172"/>
      <point x="1180" y="1357" type="curve"/>
      <point x="1317" y="1450" type="line"/>
      <point x="1355" y="1476"/>
      <point x="1382" y="1494"/>
      <point x="1382" y="1527" type="curve"/>
      <point x="1382" y="1558"/>
      <point x="1356" y="1590"/>
      <point x="1329" y="1590" type="curve"/>
      <point x="1252" y="1590"/>
      <point x="1164" y="1492"/>
      <point x="1102" y="1457" type="curve"/>
      <point x="966" y="1574"/>
      <point x="720" y="1565"/>
      <point x="564" y="1468" type="curve"/>
      <point x="428" y="1588" type="line"/>
      <point x="399" y="1613"/>
      <point x="375" y="1625"/>
      <point x="359" y="1625" type="curve"/>
      <point x="327" y="1625"/>
      <point x="288" y="1584"/>
      <point x="288" y="1553" type="curve"/>
      <point x="288" y="1526"/>
      <point x="308" y="1509"/>
      <point x="337" y="1483" type="curve"/>
      <point x="453" y="1377" type="line"/>
      <point x="284" y="1191"/>
      <point x="232" y="818"/>
      <point x="333" y="641" type="curve"/>
      <point x="159" y="522" type="line"/>
      <point x="121" y="494"/>
      <point x="94" y="476"/>
      <point x="94" y="444" type="curve"/>
      <point x="94" y="413"/>
      <point x="120" y="381"/>
      <point x="146" y="381" type="curve"/>
      <point x="193" y="381"/>
      <point x="326" y="482"/>
      <point x="411" y="543" type="curve"/>
      <point x="542" y="426"/>
      <point x="752" y="428"/>
      <point x="901" y="511" type="curve"/>
      <point x="953" y="475"/>
      <point x="1038" y="347"/>
    </contour>
  </outline>
</glyph>
<glyph name="acute" format="1">
  <advance width="609"/>
  <unicode hex="00B4"/>
  <outline>
    <contour>
      <point x="234.236" y="1213.51" type="curve"/>
      <point x="584.245" y="1545.52" type="line"/>
      <point x="694.275" y="1649.76"/>
      <point x="504.926" y="1790.86"/>
      <point x="434.02" y="1670.5" type="curve"/>
      <point x="180.881" y="1260.28" type="line"/>
      <point x="141.004" y="1197.51"/>
      <point x="187.545" y="1169.08"/>
    </contour>
  </outline>
</glyph>
<glyph name="guillemotright" format="1">
  <advance width="1440"/>
  <unicode hex="00BB"/>
  <outline>
    <contour>
      <point x="335" y="98" type="curve"/>
      <point x="414" y="98"/>
      <point x="572" y="224"/>
      <point x="682.164" y="335.518" type="curve"/>
      <point x="739.186" y="393.576"/>
      <point x="820" y="444.759"/>
      <point x="820" y="533" type="curve"/>
      <point x="820" y="640.947"/>
      <point x="721.441" y="709.971"/>
      <point x="642.403" y="756.406" type="curve"/>
      <point x="592.742" y="785.374"/>
      <point x="538.845" y="829.103"/>
      <point x="490.296" y="863.782" type="curve"/>
      <point x="432.982" y="905.464"/>
      <point x="373.584" y="973.999"/>
      <point x="304" y="973.999" type="curve"/>
      <point x="254.934" y="973.999"/>
      <point x="217" y="942.176"/>
      <point x="217" y="896" type="curve"/>
      <point x="217" y="852.155"/>
      <point x="260.81" y="825.869"/>
      <point x="305.37" y="793.457" type="curve"/>
      <point x="657.677" y="545.978" type="line"/>
      <point x="364.373" y="294.108" type="line"/>
      <point x="316.087" y="252.26"/>
      <point x="248" y="225.876"/>
      <point x="248" y="158" type="curve"/>
      <point x="248" y="125.312"/>
      <point x="291.78" y="98"/>
    </contour>
    <contour>
      <point x="911" y="98" type="curve"/>
      <point x="990" y="98"/>
      <point x="1148" y="224"/>
      <point x="1258.16" y="335.518" type="curve"/>
      <point x="1315.19" y="393.576"/>
      <point x="1396" y="444.759"/>
      <point x="1396" y="533" type="curve"/>
      <point x="1396" y="640.947"/>
      <point x="1297.44" y="709.971"/>
      <point x="1218.4" y="756.406" type="curve"/>
      <point x="1168.74" y="785.374"/>
      <point x="1114.84" y="829.103"/>
      <point x="1066.3" y="863.782" type="curve"/>
      <point x="1008.98" y="905.464"/>
      <point x="949.584" y="973.999"/>
      <point x="880" y="973.999" type="curve"/>
      <point x="830.934" y="973.999"/>
      <point x="793" y="942.176"/>
      <point x="793" y="896" type="curve"/>
      <point x="793" y="852.155"/>
      <point x="836.81" y="825.869"/>
      <point x="881.37" y="793.457" type="curve"/>
      <point x="1233.68" y="545.978" type="line"/>
      <point x="940.373" y="294.108" type="line"/>
      <point x="892.087" y="252.26"/>
      <point x="824" y="225.876"/>
      <point x="824" y="158" type="curve"/>
      <point x="824" y="125.312"/>
      <point x="867.78" y="98"/>
    </contour>
  </outline>
</glyph>
<glyph name="onequarter" format="1">
  <advance width="1759"/>
  <unicode hex="00BC"/>
  <outline>
    <contour>
      <point x="1394" y="-20" type="curve"/>
      <point x="1456" y="-20"/>
      <point x="1484" y="-26"/>
      <point x="1496" y="-5" type="curve"/>
      <point x="1517" y="43"/>
      <point x="1458" y="17"/>
      <point x="1458" y="110" type="curve"/>
      <point x="1462" y="140"/>
      <point x="1466" y="191"/>
      <point x="1484" y="222" type="curve"/>
      <point x="1544" y="220"/>
      <point x="1600" y="216"/>
      <point x="1657" y="216" type="curve"/>
      <point x="1675" y="216"/>
      <point x="1687" y="250"/>
      <point x="1687" y="331" type="curve"/>
      <point x="1687" y="352"/>
      <point x="1679" y="360"/>
      <point x="1660" y="360" type="curve"/>
      <point x="1604" y="360"/>
      <point x="1573.73" y="339.793"/>
      <point x="1509.02" y="330.988" type="curve"/>
      <point x="1526.88" y="412.528"/>
      <point x="1590" y="504.862"/>
      <point x="1590" y="593" type="curve"/>
      <point x="1590" y="612.816"/>
      <point x="1581.85" y="617"/>
      <point x="1541" y="617" type="curve"/>
      <point x="1405.66" y="617"/>
      <point x="1398" y="446"/>
      <point x="1354" y="328" type="curve"/>
      <point x="1289" y="315"/>
      <point x="1247.12" y="318.667"/>
      <point x="1183.73" y="319.827" type="curve"/>
      <point x="1263.52" y="504.206"/>
      <point x="1452" y="899"/>
      <point x="1392" y="899" type="curve"/>
      <point x="1392" y="899.247"/>
      <point x="1332.58" y="903"/>
      <point x="1303" y="903" type="curve"/>
      <point x="1245.75" y="903"/>
      <point x="1224" y="894"/>
      <point x="1218" y="869" type="curve"/>
      <point x="1171" y="667"/>
      <point x="1072.99" y="485.408"/>
      <point x="996.845" y="314.847" type="curve"/>
      <point x="979.164" y="275.063"/>
      <point x="946" y="239.21"/>
      <point x="946" y="205" type="curve"/>
      <point x="946" y="189.792"/>
      <point x="947.269" y="190"/>
      <point x="952" y="190" type="curve"/>
      <point x="1079.99" y="190"/>
      <point x="1166" y="233"/>
      <point x="1337" y="222" type="curve"/>
      <point x="1321" y="159"/>
      <point x="1298" y="125.473"/>
      <point x="1298" y="58" type="curve"/>
      <point x="1298" y="-4"/>
      <point x="1324.28" y="-20"/>
    </contour>
    <contour>
      <point x="361" y="729" type="curve"/>
      <point x="488.076" y="729"/>
      <point x="507.836" y="1074.79"/>
      <point x="527.419" y="1179.56" type="curve"/>
      <point x="550.757" y="1305.38"/>
      <point x="583" y="1399.18"/>
      <point x="583" y="1497" type="curve"/>
      <point x="583" y="1545.56"/>
      <point x="540.492" y="1575"/>
      <point x="486" y="1575" type="curve"/>
      <point x="397.282" y="1575"/>
      <point x="296.054" y="1530.23"/>
      <point x="235.985" y="1515.73" type="curve"/>
      <point x="160.877" y="1497.21"/>
      <point x="80" y="1491.66"/>
      <point x="80" y="1440" type="curve"/>
      <point x="80" y="1407.34"/>
      <point x="104.893" y="1374.16"/>
      <point x="133.224" y="1372.1" type="curve"/>
      <point x="398.148" y="1440.36" type="line"/>
      <point x="356.855" y="1253.34"/>
      <point x="267" y="832.51"/>
      <point x="267" y="800" type="curve"/>
      <point x="267" y="749.907"/>
      <point x="302.315" y="729"/>
    </contour>
    <contour>
      <point x="546" y="242" type="curve"/>
      <point x="581" y="242"/>
      <point x="609" y="264"/>
      <point x="626" y="293" type="curve"/>
      <point x="828" y="618"/>
      <point x="1010" y="963"/>
      <point x="1200" y="1287" type="curve"/>
      <point x="1220" y="1320"/>
      <point x="1235" y="1351"/>
      <point x="1235" y="1388" type="curve"/>
      <point x="1235" y="1419"/>
      <point x="1215" y="1433"/>
      <point x="1181" y="1433" type="curve"/>
      <point x="1133" y="1433"/>
      <point x="1088" y="1409"/>
      <point x="1071" y="1381" type="curve"/>
      <point x="890" y="1087"/>
      <point x="717" y="762"/>
      <point x="548" y="458" type="curve"/>
      <point x="515" y="398"/>
      <point x="483" y="369"/>
      <point x="483" y="309" type="curve"/>
      <point x="483" y="269"/>
      <point x="509" y="242"/>
    </contour>
  </outline>
</glyph>
<glyph name="Igrave" format="1">
  <advance width="982"/>
  <unicode hex="00CC"/>
  <outline>
    <contour>
      <point x="60" y="-69" type="curve" smooth="yes"/>
      <point x="125" y="-63"/>
      <point x="480" y="-50"/>
      <point x="548" y="-35" type="curve"/>
      <point x="629" y="-31"/>
      <point x="752" y="-21"/>
      <point x="847" y="-16" type="curve" smooth="yes"/>
      <point x="991.999" y="-8"/>
      <point x="1015" y="199"/>
      <point x="870" y="191" type="curve" smooth="yes"/>
      <point x="569" y="180"/>
      <point x="433" y="183"/>
      <point x="42" y="147" type="curve" smooth="yes"/>
      <point x="-64" y="136"/>
      <point x="-45" y="-78"/>
    </contour>
    <contour>
      <point x="402" y="-47" type="curve" smooth="yes"/>
      <point x="494" y="-47"/>
      <point x="580" y="-24"/>
      <point x="596" y="75" type="curve" smooth="yes"/>
      <point x="616" y="199"/>
      <point x="701" y="777"/>
      <point x="1027" y="1644" type="curve"/>
      <point x="1108" y="1648"/>
      <point x="1231" y="1650"/>
      <point x="1326" y="1655" type="curve" smooth="yes"/>
      <point x="1471" y="1663"/>
      <point x="1494" y="1878"/>
      <point x="1349" y="1870" type="curve" smooth="yes"/>
      <point x="1048" y="1859"/>
      <point x="882" y="1875"/>
      <point x="491" y="1839" type="curve" smooth="yes"/>
      <point x="385" y="1828"/>
      <point x="404" y="1634"/>
      <point x="509" y="1634" type="curve" smooth="yes"/>
      <point x="574" y="1634"/>
      <point x="762" y="1633"/>
      <point x="795" y="1633" type="curve"/>
      <point x="282" y="459"/>
      <point x="305" y="99.9999"/>
      <point x="308" y="60" type="curve" smooth="yes"/>
      <point x="314" y="-18"/>
      <point x="313" y="-47"/>
    </contour>
    <contour>
      <point x="981.999" y="1928" type="curve" smooth="yes"/>
      <point x="1017" y="1928"/>
      <point x="1040" y="1959"/>
      <point x="1040" y="1995" type="curve" smooth="yes"/>
      <point x="1040" y="2013"/>
      <point x="1037" y="2029"/>
      <point x="1030" y="2043" type="curve"/>
      <point x="961" y="2194"/>
      <point x="905" y="2331"/>
      <point x="838" y="2486" type="curve" smooth="yes"/>
      <point x="822" y="2523"/>
      <point x="790" y="2550"/>
      <point x="743" y="2550" type="curve" smooth="yes"/>
      <point x="665" y="2550"/>
      <point x="598" y="2492"/>
      <point x="598" y="2414" type="curve" smooth="yes"/>
      <point x="598" y="2384"/>
      <point x="610" y="2352"/>
      <point x="635" y="2317" type="curve" smooth="yes"/>
      <point x="697" y="2232"/>
      <point x="769" y="2142"/>
      <point x="836" y="2060" type="curve" smooth="yes"/>
      <point x="871" y="2017"/>
      <point x="914" y="1928"/>
    </contour>
  </outline>
</glyph>
<glyph name="Eth" format="1">
  <advance width="1272"/>
  <unicode hex="00D0"/>
  <outline>
    <contour>
      <point x="480" y="128" type="curve" smooth="yes"/>
      <point x="391" y="128"/>
      <point x="384" y="169"/>
      <point x="384" y="258" type="curve" smooth="yes"/>
      <point x="384" y="445"/>
      <point x="417" y="631"/>
      <point x="450" y="800" type="curve"/>
      <point x="694" y="800" type="line" smooth="yes"/>
      <point x="782" y="800"/>
      <point x="833" y="841"/>
      <point x="833" y="926" type="curve" smooth="yes"/>
      <point x="833" y="972.999"/>
      <point x="793" y="991.999"/>
      <point x="746" y="991.999" type="curve" smooth="yes"/>
      <point x="494" y="991.999" type="line"/>
      <point x="541" y="1169"/>
      <point x="624" y="1504"/>
      <point x="839" y="1504" type="curve" smooth="yes"/>
      <point x="1063" y="1504"/>
      <point x="1184" y="1300"/>
      <point x="1184" y="1069" type="curve" smooth="yes"/>
      <point x="1184" y="1002"/>
      <point x="1176" y="933"/>
      <point x="1160" y="861" type="curve" smooth="yes"/>
      <point x="1089" y="534"/>
      <point x="878" y="128"/>
    </contour>
    <contour>
      <point x="512" y="-60" type="curve" smooth="yes"/>
      <point x="605" y="-60"/>
      <point x="691" y="-44"/>
      <point x="771" y="-14" type="curve" smooth="yes"/>
      <point x="1141" y="126"/>
      <point x="1408" y="521"/>
      <point x="1408" y="1028" type="curve" smooth="yes"/>
      <point x="1408" y="1430"/>
      <point x="1214" y="1728"/>
      <point x="811" y="1728" type="curve" smooth="yes"/>
      <point x="677" y="1728"/>
      <point x="604" y="1706"/>
      <point x="528" y="1633" type="curve" smooth="yes"/>
      <point x="374" y="1485"/>
      <point x="284" y="1234"/>
      <point x="219" y="991.999" type="curve"/>
      <point x="138" y="991.999" type="line" smooth="yes"/>
      <point x="66" y="991.999"/>
      <point x="32" y="958"/>
      <point x="32" y="890" type="curve" smooth="yes"/>
      <point x="32" y="834"/>
      <point x="61" y="800"/>
      <point x="119" y="800" type="curve" smooth="yes"/>
      <point x="174" y="800" type="line"/>
      <point x="130" y="583"/>
      <point x="95.9999" y="348"/>
      <point x="95.9999" y="92.9999" type="curve" smooth="yes"/>
      <point x="95.9999" y="49"/>
      <point x="130" y="39"/>
      <point x="162" y="24" type="curve" smooth="yes"/>
      <point x="255" y="-19"/>
      <point x="376" y="-60"/>
    </contour>
  </outline>
</glyph>
<glyph name="multiply" format="1">
  <advance width="1280"/>
  <unicode hex="00D7"/>
  <outline>
    <contour>
      <point x="940" y="188" type="curve"/>
      <point x="977.619" y="188"/>
      <point x="1004" y="214.38"/>
      <point x="1004" y="252" type="curve"/>
      <point x="1004" y="288.496"/>
      <point x="984.747" y="314.967"/>
      <point x="959.857" y="339.858" type="curve"/>
      <point x="799.626" y="512.06" type="line"/>
      <point x="965.417" y="688.688" type="line"/>
      <point x="985.994" y="709.278"/>
      <point x="997" y="728.356"/>
      <point x="997" y="761" type="curve"/>
      <point x="997" y="804.596"/>
      <point x="971.513" y="840"/>
      <point x="932" y="840" type="curve"/>
      <point x="906.766" y="840"/>
      <point x="890.318" y="827.972"/>
      <point x="872.517" y="810.232" type="curve"/>
      <point x="691.339" y="608.442" type="line"/>
      <point x="503.572" y="808.149" type="line"/>
      <point x="482.317" y="830.29"/>
      <point x="464.795" y="838"/>
      <point x="444" y="838" type="curve"/>
      <point x="404.358" y="838"/>
      <point x="379" y="803.486"/>
      <point x="379" y="759" type="curve"/>
      <point x="379" y="726.356"/>
      <point x="390.006" y="707.278"/>
      <point x="410.142" y="687.142" type="curve"/>
      <point x="585.239" y="512.045" type="line"/>
      <point x="416.142" y="341.858" type="line"/>
      <point x="391.252" y="316.967"/>
      <point x="372" y="290.496"/>
      <point x="372" y="254" type="curve"/>
      <point x="372" y="216.38"/>
      <point x="398.38" y="190"/>
      <point x="436" y="190" type="curve"/>
      <point x="478" y="190"/>
      <point x="494.824" y="207.108"/>
      <point x="519.388" y="231.656" type="curve"/>
      <point x="691.425" y="415.747" type="line"/>
      <point x="855.919" y="229.32" type="line"/>
      <point x="879.116" y="203.339"/>
      <point x="902.892" y="188"/>
    </contour>
  </outline>
</glyph>
<glyph name="ccedilla" format="1">
  <advance width="827"/>
  <unicode hex="00E7"/>
  <outline>
    <contour>
      <point x="438" y="-16" type="curve" smooth="yes"/>
      <point x="705" y="-33"/>
      <point x="884" y="147"/>
      <point x="964" y="267" type="curve" smooth="yes"/>
      <point x="1002" y="324"/>
      <point x="942" y="427"/>
      <point x="880" y="374" type="curve" smooth="yes"/>
      <point x="753" y="266"/>
      <point x="637" y="139"/>
      <point x="478" y="154" type="curve" smooth="yes"/>
      <point x="358" y="165"/>
      <point x="281" y="251"/>
      <point x="283" y="395" type="curve" smooth="yes"/>
      <point x="287" y="675"/>
      <point x="471" y="790"/>
      <point x="563" y="788" type="curve" smooth="yes"/>
      <point x="651" y="786"/>
      <point x="669" y="669"/>
      <point x="589" y="573" type="curve" smooth="yes"/>
      <point x="540" y="515"/>
      <point x="629" y="397"/>
      <point x="723" y="479" type="curve" smooth="yes"/>
      <point x="768" y="518"/>
      <point x="821" y="580"/>
      <point x="827" y="711" type="curve" smooth="yes"/>
      <point x="834" y="863"/>
      <point x="718" y="966"/>
      <point x="559" y="966" type="curve" smooth="yes"/>
      <point x="294" y="966"/>
      <point x="92" y="703"/>
      <point x="66" y="413" type="curve" smooth="yes"/>
      <point x="44" y="169"/>
      <point x="201" y="-1"/>
    </contour>
    <contour>
      <point x="131" y="-587" type="curve" smooth="yes"/>
      <point x="222" y="-587"/>
      <point x="283" y="-518"/>
      <point x="294" y="-436" type="curve" smooth="yes"/>
      <point x="313" y="-298"/>
      <point x="344" y="-175"/>
      <point x="344" y="-15" type="curve" smooth="yes"/>
      <point x="344" y="9.99999"/>
      <point x="323" y="20"/>
      <point x="298" y="20" type="curve" smooth="yes"/>
      <point x="268" y="20"/>
      <point x="245" y="-9"/>
      <point x="234" y="-30" type="curve" smooth="yes"/>
      <point x="207" y="-81"/>
      <point x="177" y="-126"/>
      <point x="151" y="-167" type="curve" smooth="yes"/>
      <point x="97.9999" y="-251"/>
      <point x="20" y="-348"/>
      <point x="20" y="-468" type="curve" smooth="yes"/>
      <point x="20" y="-540"/>
      <point x="61" y="-587"/>
    </contour>
  </outline>
</glyph>
<glyph name="eacute" format="1">
  <advance width="827"/>
  <unicode hex="00E9"/>
  <outline>
    <contour>
      <point x="631" y="1193" type="curve" smooth="yes"/>
      <point x="980.999" y="1525" type="line" smooth="yes"/>
      <point x="1114" y="1651"/>
      <point x="886" y="1821"/>
      <point x="800" y="1675" type="curve" smooth="yes"/>
      <point x="547" y="1265" type="line" smooth="yes"/>
      <point x="493" y="1180"/>
      <point x="569" y="1134"/>
    </contour>
    <contour>
      <point x="289" y="422" type="curve"/>
      <point x="289" y="587"/>
      <point x="420" y="775"/>
      <point x="564" y="775" type="curve" smooth="yes"/>
      <point x="612" y="775"/>
      <point x="656" y="751"/>
      <point x="649" y="681" type="curve" smooth="yes"/>
      <point x="638" y="571"/>
      <point x="409" y="464"/>
    </contour>
    <contour>
      <point x="461" y="-17" type="curve" smooth="yes"/>
      <point x="710" y="-24"/>
      <point x="945" y="131"/>
      <point x="1037" y="257" type="curve" smooth="yes"/>
      <point x="1102" y="345"/>
      <point x="995.999" y="419"/>
      <point x="952" y="376" type="curve" smooth="yes"/>
      <point x="716" y="149"/>
      <point x="364" y="97.9999"/>
      <point x="299" y="300" type="curve"/>
      <point x="633" y="388"/>
      <point x="827" y="494"/>
      <point x="827" y="717" type="curve" smooth="yes"/>
      <point x="827" y="873"/>
      <point x="706" y="966"/>
      <point x="552" y="966" type="curve" smooth="yes"/>
      <point x="271" y="966"/>
      <point x="64" y="648"/>
      <point x="64" y="377" type="curve" smooth="yes"/>
      <point x="64" y="105"/>
      <point x="261" y="-11"/>
    </contour>
  </outline>
</glyph>
<glyph name="ograve" format="1">
  <advance width="920"/>
  <unicode hex="00F2"/>
  <outline>
    <contour>
      <point x="613" y="1082" type="curve" smooth="yes"/>
      <point x="648" y="1082"/>
      <point x="671" y="1113"/>
      <point x="671" y="1149" type="curve" smooth="yes"/>
      <point x="671" y="1167"/>
      <point x="668" y="1183"/>
      <point x="661" y="1197" type="curve"/>
      <point x="592" y="1348"/>
      <point x="536" y="1485"/>
      <point x="469" y="1640" type="curve" smooth="yes"/>
      <point x="453" y="1677"/>
      <point x="421" y="1704"/>
      <point x="374" y="1704" type="curve" smooth="yes"/>
      <point x="296" y="1704"/>
      <point x="229" y="1646"/>
      <point x="229" y="1568" type="curve" smooth="yes"/>
      <point x="229" y="1538"/>
      <point x="241" y="1506"/>
      <point x="266" y="1471" type="curve" smooth="yes"/>
      <point x="328" y="1386"/>
      <point x="400" y="1296"/>
      <point x="467" y="1214" type="curve" smooth="yes"/>
      <point x="502" y="1171"/>
      <point x="545" y="1082"/>
    </contour>
    <contour>
      <point x="439" y="172" type="curve" smooth="yes"/>
      <point x="327" y="172"/>
      <point x="290" y="258"/>
      <point x="290" y="365" type="curve" smooth="yes"/>
      <point x="290" y="537"/>
      <point x="403" y="766"/>
      <point x="560" y="766" type="curve" smooth="yes"/>
      <point x="603" y="766"/>
      <point x="628" y="718"/>
      <point x="625" y="714" type="curve" smooth="yes"/>
      <point x="511" y="566"/>
      <point x="526" y="490"/>
      <point x="656" y="428" type="curve"/>
      <point x="645" y="321"/>
      <point x="549" y="172"/>
    </contour>
    <contour>
      <point x="375" y="-16" type="curve" smooth="yes"/>
      <point x="669" y="-16"/>
      <point x="797" y="220"/>
      <point x="837" y="374" type="curve"/>
      <point x="939" y="383"/>
      <point x="1137" y="452"/>
      <point x="1222" y="536" type="curve" smooth="yes"/>
      <point x="1268" y="582"/>
      <point x="1197" y="725"/>
      <point x="1143" y="689" type="curve" smooth="yes"/>
      <point x="1057" y="632"/>
      <point x="987.999" y="581"/>
      <point x="864" y="563" type="curve"/>
      <point x="915" y="790"/>
      <point x="776" y="966"/>
      <point x="588" y="966" type="curve" smooth="yes"/>
      <point x="304" y="966"/>
      <point x="64" y="672"/>
      <point x="64" y="353" type="curve" smooth="yes"/>
      <point x="64" y="148"/>
      <point x="175" y="-16"/>
    </contour>
  </outline>
</glyph>
<glyph name="zcaron" format="1">
  <advance width="743"/>
  <unicode hex="017E"/>
  <outline>
    <contour>
      <point x="383" y="1106" type="curve" smooth="yes"/>
      <point x="523" y="1106"/>
      <point x="555" y="1223"/>
      <point x="604" y="1320" type="curve" smooth="yes"/>
      <point x="768" y="1649" type="line" smooth="yes"/>
      <point x="774" y="1662"/>
      <point x="775" y="1675"/>
      <point x="775" y="1687" type="curve" smooth="yes"/>
      <point x="775" y="1730"/>
      <point x="747" y="1778"/>
      <point x="707" y="1778" type="curve" smooth="yes"/>
      <point x="606" y="1778"/>
      <point x="578" y="1727"/>
      <point x="546" y="1650" type="curve" smooth="yes"/>
      <point x="493" y="1524"/>
      <point x="448" y="1401"/>
      <point x="399" y="1270" type="curve"/>
      <point x="371" y="1384"/>
      <point x="367" y="1782"/>
      <point x="212" y="1782" type="curve" smooth="yes"/>
      <point x="142" y="1782"/>
      <point x="97.9999" y="1738"/>
      <point x="97.9999" y="1669" type="curve" smooth="yes"/>
      <point x="97.9999" y="1656"/>
      <point x="98.9999" y="1644"/>
      <point x="103" y="1634" type="curve"/>
      <point x="134" y="1533"/>
      <point x="163" y="1454"/>
      <point x="191" y="1356" type="curve" smooth="yes"/>
      <point x="224" y="1243"/>
      <point x="244" y="1106"/>
    </contour>
    <contour>
      <point x="166" y="-2" type="curve" smooth="yes"/>
      <point x="206" y="-2"/>
      <point x="245" y="46"/>
      <point x="272" y="70" type="curve"/>
      <point x="346" y="38"/>
      <point x="435" y="-2"/>
      <point x="524" y="-2" type="curve" smooth="yes"/>
      <point x="685" y="-2"/>
      <point x="1007" y="96.9999"/>
      <point x="1007" y="261" type="curve" smooth="yes"/>
      <point x="1007" y="298"/>
      <point x="981.999" y="329"/>
      <point x="945" y="329" type="curve" smooth="yes"/>
      <point x="919" y="329"/>
      <point x="894" y="322"/>
      <point x="870" y="308" type="curve" smooth="yes"/>
      <point x="789" y="260"/>
      <point x="715" y="190"/>
      <point x="586" y="190" type="curve" smooth="yes"/>
      <point x="506" y="190"/>
      <point x="421" y="235"/>
      <point x="355" y="235" type="curve"/>
      <point x="360" y="255" type="line"/>
      <point x="483" y="402"/>
      <point x="644" y="561"/>
      <point x="743" y="729" type="curve"/>
      <point x="806" y="745"/>
      <point x="829" y="761"/>
      <point x="829" y="831" type="curve" smooth="yes"/>
      <point x="829" y="893"/>
      <point x="808" y="924"/>
      <point x="747" y="924" type="curve" smooth="yes"/>
      <point x="698" y="924"/>
      <point x="645" y="912"/>
      <point x="591" y="912" type="curve" smooth="yes"/>
      <point x="465" y="912"/>
      <point x="390" y="983.999"/>
      <point x="265" y="983.999" type="curve" smooth="yes"/>
      <point x="149" y="983.999"/>
      <point x="125" y="880"/>
      <point x="125" y="758" type="curve" smooth="yes"/>
      <point x="125" y="731"/>
      <point x="130" y="705"/>
      <point x="154" y="705" type="curve" smooth="yes"/>
      <point x="231" y="705"/>
      <point x="282" y="742"/>
      <point x="369" y="742" type="curve" smooth="yes"/>
      <point x="402" y="742"/>
      <point x="441" y="738"/>
      <point x="484" y="729" type="curve"/>
      <point x="143" y="251" type="line" smooth="yes"/>
      <point x="115" y="211"/>
      <point x="49" y="192"/>
      <point x="49" y="127" type="curve" smooth="yes"/>
      <point x="49" y="51"/>
      <point x="90" y="-2"/>
    </contour>
  </outline>
</glyph>
<glyph name="caron" format="1">
  <advance width="864"/>
  <unicode hex="02C7"/>
  <outline>
    <contour>
      <point x="394" y="1049" type="curve"/>
      <point x="280.938" y="1049"/>
      <point x="264.383" y="1162.4"/>
      <point x="230.797" y="1277.41" type="curve"/>
      <point x="202.42" y="1376.73"/>
      <point x="173.19" y="1456.26"/>
      <point x="142.281" y="1557.1" type="curve"/>
      <point x="125.076" y="1597.95"/>
      <point x="148.775" y="1665"/>
      <point x="223" y="1665" type="curve"/>
      <point x="338.238" y="1665"/>
      <point x="348" y="1335"/>
      <point x="412" y="1184" type="curve"/>
      <point x="470" y="1256"/>
      <point x="536.861" y="1437.75"/>
      <point x="584.653" y="1551.37" type="curve"/>
      <point x="615.294" y="1625.1"/>
      <point x="637" y="1668"/>
      <point x="718" y="1661" type="curve"/>
      <point x="778" y="1655"/>
      <point x="763.831" y="1600.62"/>
      <point x="751.781" y="1574.61" type="curve"/>
      <point x="752.151" y="1575.38" type="line"/>
      <point x="588.151" y="1246.38" type="line"/>
      <point x="537.86" y="1146.83"/>
      <point x="511.103" y="1049"/>
    </contour>
  </outline>
</glyph>
<glyph name="hungarumlaut" format="1">
  <advance width="1024"/>
  <unicode hex="02DD"/>
  <outline>
    <contour>
      <point x="160" y="1128" type="curve"/>
      <point x="149.309" y="1128"/>
      <point x="142" y="1136.73"/>
      <point x="142" y="1155" type="curve"/>
      <point x="142" y="1241.46"/>
      <point x="216.995" y="1349.26"/>
      <point x="255.534" y="1435.71" type="curve"/>
      <point x="281.468" y="1495.56"/>
      <point x="311.605" y="1559.85"/>
      <point x="340.954" y="1630.69" type="curve"/>
      <point x="351.3" y="1655.26"/>
      <point x="370.304" y="1670"/>
      <point x="399" y="1670" type="curve"/>
      <point x="457.941" y="1670"/>
      <point x="504" y="1629.63"/>
      <point x="504" y="1574" type="curve"/>
      <point x="504" y="1507.83"/>
      <point x="425.519" y="1437.28"/>
      <point x="380.274" y="1378.36" type="curve"/>
      <point x="321.839" y="1302.1"/>
      <point x="256.088" y="1224.39"/>
      <point x="196.724" y="1149.94" type="curve"/>
      <point x="212.362" y="1137.47" type="line"/>
      <point x="212.761" y="1137.95" type="line"/>
      <point x="197.522" y="1150.91" type="line"/>
      <point x="182.623" y="1133.38"/>
      <point x="176.297" y="1128"/>
    </contour>
    <contour>
      <point x="492" y="1128" type="curve"/>
      <point x="504.301" y="1128"/>
      <point x="512.258" y="1132.18"/>
      <point x="529.992" y="1151.45" type="curve"/>
      <point x="635.386" y="1271.03"/>
      <point x="758.06" y="1383.73"/>
      <point x="858.428" y="1502.79" type="curve"/>
      <point x="879.896" y="1528.24"/>
      <point x="886" y="1549.6"/>
      <point x="886" y="1574" type="curve"/>
      <point x="886" y="1629.07"/>
      <point x="850.475" y="1670"/>
      <point x="801" y="1670" type="curve"/>
      <point x="762.628" y="1670"/>
      <point x="735.184" y="1652.97"/>
      <point x="721.352" y="1627.28" type="curve"/>
      <point x="666.959" y="1524.54"/>
      <point x="621.81" y="1447.29"/>
      <point x="571.072" y="1354.77" type="curve"/>
      <point x="534.931" y="1288.86"/>
      <point x="474" y="1219.87"/>
      <point x="474" y="1155" type="curve"/>
      <point x="474" y="1136.73"/>
      <point x="481.309" y="1128"/>
    </contour>
  </outline>
</glyph>
<glyph name="and" format="1">
  <advance width="2573"/>
  <outline>
    <contour>
      <point x="305" y="-152" type="curve"/>
      <point x="306" y="-151" type="line"/>
      <point x="754" y="-78"/>
      <point x="994.999" y="26"/>
      <point x="1443" y="99.9999" type="curve"/>
      <point x="1795" y="180"/>
      <point x="2000" y="164"/>
      <point x="2351" y="245" type="curve"/>
      <point x="2358" y="246"/>
      <point x="2361" y="252"/>
      <point x="2361" y="259" type="curve" smooth="yes"/>
      <point x="2361" y="277"/>
      <point x="2345" y="304"/>
      <point x="2327" y="305" type="curve" smooth="yes"/>
      <point x="2210" y="310"/>
      <point x="2115" y="316"/>
      <point x="2023" y="316" type="curve" smooth="yes"/>
      <point x="1910" y="316"/>
      <point x="1802" y="307"/>
      <point x="1661" y="275" type="curve"/>
      <point x="1120" y="188"/>
      <point x="821" y="97.9999"/>
      <point x="297" y="-67" type="curve" smooth="yes"/>
      <point x="287" y="-70"/>
      <point x="284" y="-79"/>
      <point x="284" y="-91" type="curve" smooth="yes"/>
      <point x="284" y="-116"/>
      <point x="300" y="-152"/>
    </contour>
    <contour>
      <point x="269" y="284" type="curve" smooth="yes"/>
      <point x="364" y="284"/>
      <point x="444" y="361"/>
      <point x="489" y="428" type="curve"/>
      <point x="517" y="371"/>
      <point x="553" y="322"/>
      <point x="640" y="322" type="curve" smooth="yes"/>
      <point x="719" y="322"/>
      <point x="788" y="377"/>
      <point x="841" y="441" type="curve"/>
      <point x="850" y="392"/>
      <point x="875" y="354"/>
      <point x="942" y="354" type="curve" smooth="yes"/>
      <point x="980.999" y="354"/>
      <point x="996.999" y="377"/>
      <point x="1013" y="415" type="curve" smooth="yes"/>
      <point x="1188" y="823" type="line"/>
      <point x="1200" y="825" type="line"/>
      <point x="1201" y="745"/>
      <point x="1203" y="665"/>
      <point x="1203" y="579" type="curve" smooth="yes"/>
      <point x="1203" y="490"/>
      <point x="1238" y="392"/>
      <point x="1322" y="392" type="curve" smooth="yes"/>
      <point x="1405" y="392"/>
      <point x="1472" y="459"/>
      <point x="1520" y="531" type="curve"/>
      <point x="1551" y="476"/>
      <point x="1609" y="438"/>
      <point x="1695" y="438" type="curve" smooth="yes"/>
      <point x="1802" y="438"/>
      <point x="1882" y="527"/>
      <point x="1939" y="598" type="curve"/>
      <point x="1968" y="541"/>
      <point x="2027" y="483"/>
      <point x="2119" y="483" type="curve" smooth="yes"/>
      <point x="2227" y="483"/>
      <point x="2319" y="591"/>
      <point x="2387" y="658" type="curve" smooth="yes"/>
      <point x="2400" y="670"/>
      <point x="2410" y="725"/>
      <point x="2410" y="772" type="curve" smooth="yes"/>
      <point x="2410" y="813"/>
      <point x="2402" y="849"/>
      <point x="2381" y="849" type="curve" smooth="yes"/>
      <point x="2372" y="849"/>
      <point x="2361" y="843"/>
      <point x="2347" y="828" type="curve" smooth="yes"/>
      <point x="2296" y="772"/>
      <point x="2220" y="669"/>
      <point x="2134" y="669" type="curve" smooth="yes"/>
      <point x="2078" y="669"/>
      <point x="2070" y="728"/>
      <point x="2070" y="772" type="curve" smooth="yes"/>
      <point x="2070" y="819"/>
      <point x="2070" y="870"/>
      <point x="2079" y="903" type="curve" smooth="yes"/>
      <point x="2143" y="1119"/>
      <point x="2251" y="1329"/>
      <point x="2251" y="1623" type="curve" smooth="yes"/>
      <point x="2251" y="1722"/>
      <point x="2221" y="1828"/>
      <point x="2099" y="1828" type="curve" smooth="yes"/>
      <point x="2068" y="1828"/>
      <point x="2038" y="1815"/>
      <point x="2010" y="1788" type="curve"/>
      <point x="1878" y="1680"/>
      <point x="1820" y="1398"/>
      <point x="1815" y="1133" type="curve"/>
      <point x="1631" y="1112"/>
      <point x="1483" y="920"/>
      <point x="1479" y="672" type="curve"/>
      <point x="1471" y="629"/>
      <point x="1434" y="553"/>
      <point x="1398" y="553" type="curve" smooth="yes"/>
      <point x="1366" y="553"/>
      <point x="1349" y="579"/>
      <point x="1349" y="632" type="curve" smooth="yes"/>
      <point x="1349" y="715"/>
      <point x="1353" y="867"/>
      <point x="1353" y="1001" type="curve" smooth="yes"/>
      <point x="1353" y="1059"/>
      <point x="1325" y="1109"/>
      <point x="1259" y="1109" type="curve" smooth="yes"/>
      <point x="1201" y="1109"/>
      <point x="1168" y="1080"/>
      <point x="1144" y="1027" type="curve"/>
      <point x="1101" y="947"/>
      <point x="1061" y="854"/>
      <point x="1020" y="773" type="curve"/>
      <point x="1005" y="771" type="line"/>
      <point x="1007" y="821"/>
      <point x="1012" y="918"/>
      <point x="1012" y="993.999" type="curve" smooth="yes"/>
      <point x="1012" y="1043"/>
      <point x="992.999" y="1077"/>
      <point x="931" y="1077" type="curve" smooth="yes"/>
      <point x="827" y="1077"/>
      <point x="824" y="883"/>
      <point x="824" y="735" type="curve" smooth="yes"/>
      <point x="824" y="701" type="line" smooth="yes"/>
      <point x="824" y="679"/>
      <point x="824" y="658"/>
      <point x="823" y="640" type="curve"/>
      <point x="784" y="585"/>
      <point x="721" y="492"/>
      <point x="646" y="492" type="curve" smooth="yes"/>
      <point x="607" y="492"/>
      <point x="606" y="528"/>
      <point x="606" y="563" type="curve" smooth="yes"/>
      <point x="606" y="688"/>
      <point x="617" y="792"/>
      <point x="617" y="915" type="curve" smooth="yes"/>
      <point x="617" y="955"/>
      <point x="605" y="978.999"/>
      <point x="556" y="978.999" type="curve"/>
      <point x="522" y="975.999" type="line"/>
      <point x="456" y="975.999"/>
      <point x="467" y="1020"/>
      <point x="409" y="1020" type="curve" smooth="yes"/>
      <point x="376" y="1020"/>
      <point x="344" y="1008"/>
      <point x="311" y="987.999" type="curve" smooth="yes"/>
      <point x="181" y="912"/>
      <point x="60" y="714"/>
      <point x="60" y="474" type="curve" smooth="yes"/>
      <point x="60" y="368"/>
      <point x="140" y="284"/>
    </contour>
    <contour>
      <point x="316" y="433" type="curve" smooth="yes"/>
      <point x="260" y="433"/>
      <point x="248" y="481"/>
      <point x="248" y="526" type="curve" smooth="yes"/>
      <point x="248" y="673"/>
      <point x="326" y="881"/>
      <point x="444" y="881" type="curve"/>
      <point x="422" y="658" type="line" smooth="yes"/>
      <point x="415" y="583"/>
      <point x="383" y="433"/>
    </contour>
    <contour>
      <point x="1730" y="585" type="curve" smooth="yes"/>
      <point x="1679" y="585"/>
      <point x="1661" y="619"/>
      <point x="1661" y="666" type="curve" smooth="yes"/>
      <point x="1661" y="827"/>
      <point x="1743" y="967"/>
      <point x="1830" y="1022" type="curve"/>
      <point x="1830" y="1022"/>
      <point x="1864" y="725"/>
      <point x="1875" y="705" type="curve"/>
      <point x="1844" y="658"/>
      <point x="1795" y="585"/>
    </contour>
    <contour>
      <point x="2012" y="1009" type="curve"/>
      <point x="2008" y="1047" type="line"/>
      <point x="2008" y="1161"/>
      <point x="2012" y="1652"/>
      <point x="2085" y="1652" type="curve" smooth="yes"/>
      <point x="2118" y="1652"/>
      <point x="2119" y="1617"/>
      <point x="2119" y="1583" type="curve" smooth="yes"/>
      <point x="2119" y="1363"/>
      <point x="2060" y="1168"/>
    </contour>
  </outline>
</glyph>
<glyph name="b.init" format="1">
  <advance width="1086"/>
  <outline>
    <contour>
      <point x="893" y="353" type="curve" smooth="yes"/>
      <point x="1042" y="353"/>
      <point x="1213" y="427"/>
      <point x="1299" y="506" type="curve" smooth="yes"/>
      <point x="1328" y="533"/>
      <point x="1333" y="548"/>
      <point x="1333" y="585" type="curve" smooth="yes"/>
      <point x="1333" y="629"/>
      <point x="1309" y="682"/>
      <point x="1269" y="682" type="curve" smooth="yes"/>
      <point x="1229" y="682"/>
      <point x="1115" y="563"/>
      <point x="957" y="563" type="curve" smooth="yes"/>
      <point x="835" y="563"/>
      <point x="866" y="655"/>
      <point x="779" y="742" type="curve" smooth="yes"/>
      <point x="773" y="748" type="line"/>
      <point x="685" y="706"/>
      <point x="633" y="603"/>
      <point x="633" y="537" type="curve" smooth="yes"/>
      <point x="633" y="414"/>
      <point x="747" y="353"/>
    </contour>
    <contour>
      <point x="528" y="176" type="curve" smooth="yes"/>
      <point x="390" y="176"/>
      <point x="337" y="296"/>
      <point x="337" y="428" type="curve" smooth="yes"/>
      <point x="337" y="591"/>
      <point x="424" y="774"/>
      <point x="606" y="774" type="curve" smooth="yes"/>
      <point x="718" y="774"/>
      <point x="763" y="675"/>
      <point x="763" y="557" type="curve" smooth="yes"/>
      <point x="763" y="386"/>
      <point x="667" y="176"/>
    </contour>
    <contour>
      <point x="360" y="845" type="curve"/>
      <point x="383" y="968.999"/>
      <point x="501" y="1728"/>
      <point x="659" y="1728" type="curve" smooth="yes"/>
      <point x="695" y="1728"/>
      <point x="710" y="1683"/>
      <point x="710" y="1648" type="curve" smooth="yes"/>
      <point x="710" y="1330"/>
      <point x="478" y="1072"/>
    </contour>
    <contour>
      <point x="502" y="-16" type="curve" smooth="yes"/>
      <point x="817" y="-16"/>
      <point x="989.999" y="277"/>
      <point x="989.999" y="674" type="curve" smooth="yes"/>
      <point x="989.999" y="831"/>
      <point x="924" y="966"/>
      <point x="756" y="966" type="curve" smooth="yes"/>
      <point x="693" y="966"/>
      <point x="623" y="943"/>
      <point x="557" y="905" type="curve"/>
      <point x="701" y="1036"/>
      <point x="902" y="1335"/>
      <point x="902" y="1591" type="curve" smooth="yes"/>
      <point x="902" y="1784"/>
      <point x="862" y="1920"/>
      <point x="668" y="1920" type="curve" smooth="yes"/>
      <point x="282" y="1920"/>
      <point x="99.9999" y="688"/>
      <point x="99.9999" y="408" type="curve" smooth="yes"/>
      <point x="99.9999" y="206"/>
      <point x="226" y="-16"/>
    </contour>
  </outline>
</glyph>
<glyph name="e.fina" format="1">
  <advance width="1054"/>
  <outline>
    <contour>
      <point x="567" y="-11" type="curve"/>
      <point x="806" y="-11"/>
      <point x="1044.1" y="121.522"/>
      <point x="1172.29" y="238.48" type="curve"/>
      <point x="1186.74" y="248.954"/>
      <point x="1194" y="265.069"/>
      <point x="1194" y="280" type="curve"/>
      <point x="1194" y="314.705"/>
      <point x="1164.47" y="350"/>
      <point x="1131" y="350" type="curve"/>
      <point x="1120.25" y="350"/>
      <point x="1111.62" y="347.126"/>
      <point x="1100.45" y="338.346" type="curve"/>
      <point x="1015.94" y="271.143"/>
      <point x="790" y="120"/>
      <point x="594" y="120" type="curve"/>
      <point x="486" y="120"/>
      <point x="351.167" y="180.404"/>
      <point x="324.553" y="303.761" type="curve"/>
      <point x="519.472" y="346.798"/>
      <point x="795" y="503.292"/>
      <point x="795" y="720" type="curve"/>
      <point x="795" y="862.207"/>
      <point x="697.097" y="939"/>
      <point x="552" y="939" type="curve"/>
      <point x="271.674" y="939"/>
      <point x="124" y="679.716"/>
      <point x="124" y="417" type="curve"/>
      <point x="124" y="106.775"/>
      <point x="344" y="-11"/>
    </contour>
    <contour>
      <point x="315.095" y="409.447" type="curve"/>
      <point x="303.745" y="546.099"/>
      <point x="380.196" y="791"/>
      <point x="564" y="791" type="curve"/>
      <point x="623.085" y="791"/>
      <point x="657" y="736.736"/>
      <point x="657" y="678" type="curve"/>
      <point x="657" y="530.113"/>
      <point x="382.804" y="431.39"/>
    </contour>
  </outline>
</glyph>
<glyph name="g.fina" format="1">
  <advance width="952"/>
  <outline>
    <contour>
      <point x="126" y="-646" type="curve" smooth="yes"/>
      <point x="98.9999" y="-646"/>
      <point x="86" y="-634"/>
      <point x="86" y="-609" type="curve" smooth="yes"/>
      <point x="86" y="-459"/>
      <point x="303" y="-308"/>
      <point x="414" y="-246" type="curve"/>
      <point x="384" y="-380"/>
      <point x="309" y="-646"/>
    </contour>
    <contour>
      <point x="352" y="192" type="curve" smooth="yes"/>
      <point x="288" y="192"/>
      <point x="274" y="260"/>
      <point x="274" y="324" type="curve" smooth="yes"/>
      <point x="274" y="508"/>
      <point x="398" y="768"/>
      <point x="585" y="768" type="curve"/>
      <point x="524" y="474" type="line" smooth="yes"/>
      <point x="505" y="380"/>
      <point x="460" y="192"/>
    </contour>
    <contour>
      <point x="114" y="-838" type="curve" smooth="yes"/>
      <point x="472" y="-838"/>
      <point x="579" y="-497"/>
      <point x="637" y="-208" type="curve"/>
      <point x="751" y="-190"/>
      <point x="862" y="-181"/>
      <point x="1008" y="-175" type="curve" smooth="yes"/>
      <point x="1078" y="-172"/>
      <point x="1104" y="-142"/>
      <point x="1104" y="-105" type="curve" smooth="yes"/>
      <point x="1104" y="-39"/>
      <point x="1023" y="51"/>
      <point x="974.999" y="51" type="curve" smooth="yes"/>
      <point x="836" y="51"/>
      <point x="754" y="26"/>
      <point x="669" y="14" type="curve"/>
      <point x="731" y="272"/>
      <point x="818" y="515"/>
      <point x="818" y="790" type="curve" smooth="yes"/>
      <point x="818" y="849"/>
      <point x="803" y="883"/>
      <point x="746" y="883" type="curve" smooth="yes"/>
      <point x="731" y="883"/>
      <point x="716" y="882"/>
      <point x="701" y="882" type="curve" smooth="yes"/>
      <point x="617" y="882"/>
      <point x="630" y="958"/>
      <point x="557" y="958" type="curve" smooth="yes"/>
      <point x="511" y="958"/>
      <point x="466" y="948"/>
      <point x="422" y="928" type="curve" smooth="yes"/>
      <point x="211" y="834"/>
      <point x="18" y="583"/>
      <point x="18" y="281" type="curve" smooth="yes"/>
      <point x="18" y="123"/>
      <point x="115" y="-2"/>
      <point x="269" y="-2" type="curve" smooth="yes"/>
      <point x="361" y="-2"/>
      <point x="439" y="55"/>
      <point x="495" y="105" type="curve"/>
      <point x="448" y="-38" type="line"/>
      <point x="236" y="-155"/>
      <point x="-110" y="-331"/>
      <point x="-110" y="-639" type="curve" smooth="yes"/>
      <point x="-110" y="-780"/>
      <point x="-22" y="-838"/>
    </contour>
  </outline>
</glyph>
<glyph name="l_l" format="1">
  <advance width="1420"/>
  <outline>
    <contour>
      <point x="873" y="190" type="line"/>
      <point x="997.999" y="313"/>
      <point x="1054" y="467"/>
      <point x="1037" y="489" type="curve"/>
      <point x="985.999" y="623" type="line"/>
      <point x="1009" y="590"/>
      <point x="877" y="444"/>
      <point x="765" y="325" type="curve"/>
    </contour>
    <contour>
      <point x="406" y="772" type="curve"/>
      <point x="450" y="1069"/>
      <point x="612" y="1680"/>
      <point x="797" y="1680" type="curve" smooth="yes"/>
      <point x="833" y="1680"/>
      <point x="847" y="1662"/>
      <point x="847" y="1620" type="curve" smooth="yes"/>
      <point x="847" y="1383"/>
      <point x="601" y="995.999"/>
    </contour>
    <contour>
      <point x="447" y="-9" type="curve" smooth="yes"/>
      <point x="612" y="-9"/>
      <point x="761" y="62"/>
      <point x="923" y="243" type="curve" smooth="yes"/>
      <point x="1022" y="352"/>
      <point x="879" y="450"/>
      <point x="820" y="383" type="curve" smooth="yes"/>
      <point x="719" y="269"/>
      <point x="601" y="177"/>
      <point x="496" y="177" type="curve" smooth="yes"/>
      <point x="348" y="177"/>
      <point x="369" y="392"/>
      <point x="392" y="560" type="curve"/>
      <point x="699" y="801"/>
      <point x="1031" y="1275"/>
      <point x="1062" y="1696" type="curve" smooth="yes"/>
      <point x="1072" y="1818"/>
      <point x="993.999" y="1920"/>
      <point x="865" y="1920" type="curve" smooth="yes"/>
      <point x="445" y="1920"/>
      <point x="188" y="1032"/>
      <point x="148" y="526" type="curve" smooth="yes"/>
      <point x="123" y="205"/>
      <point x="197" y="-9"/>
    </contour>
    <contour>
      <point x="1138" y="744" type="curve"/>
      <point x="1182" y="1031"/>
      <point x="1342" y="1620"/>
      <point x="1525" y="1620" type="curve" smooth="yes"/>
      <point x="1561" y="1620"/>
      <point x="1575" y="1603"/>
      <point x="1575" y="1562" type="curve" smooth="yes"/>
      <point x="1575" y="1334"/>
      <point x="1331" y="960"/>
    </contour>
    <contour>
      <point x="1179" y="-9" type="curve" smooth="yes"/>
      <point x="1342" y="-9"/>
      <point x="1490" y="60"/>
      <point x="1650" y="234" type="curve" smooth="yes"/>
      <point x="1748" y="339"/>
      <point x="1607" y="434"/>
      <point x="1548" y="369" type="curve" smooth="yes"/>
      <point x="1448" y="259"/>
      <point x="1331" y="171"/>
      <point x="1227" y="171" type="curve" smooth="yes"/>
      <point x="1081" y="171"/>
      <point x="1101" y="378"/>
      <point x="1124" y="540" type="curve"/>
      <point x="1428" y="772"/>
      <point x="1757" y="1230"/>
      <point x="1788" y="1635" type="curve" smooth="yes"/>
      <point x="1798" y="1753"/>
      <point x="1720" y="1851"/>
      <point x="1593" y="1851" type="curve" smooth="yes"/>
      <point x="1177" y="1851"/>
      <point x="922" y="994.999"/>
      <point x="883" y="507" type="curve" smooth="yes"/>
      <point x="858" y="198"/>
      <point x="931" y="-9"/>
    </contour>
  </outline>
</glyph>
<glyph name="m.fina" format="1">
  <advance width="1447"/>
  <outline>
    <contour>
      <point x="229" y="-8" type="curve"/>
      <point x="313" y="-8"/>
      <point x="310" y="13"/>
      <point x="386" y="186" type="curve"/>
      <point x="476" y="393"/>
      <point x="678.967" y="747.16"/>
      <point x="717.046" y="721.004" type="curve"/>
      <point x="730" y="702"/>
      <point x="641" y="312"/>
      <point x="632" y="114" type="curve"/>
      <point x="627" y="8"/>
      <point x="678" y="-8"/>
      <point x="701" y="-8" type="curve"/>
      <point x="730" y="-8"/>
      <point x="783" y="-7"/>
      <point x="827" y="113" type="curve"/>
      <point x="887" y="277"/>
      <point x="1112.17" y="731.095"/>
      <point x="1154.24" y="689.92" type="curve"/>
      <point x="1158" y="550"/>
      <point x="1073" y="292"/>
      <point x="1072" y="140" type="curve"/>
      <point x="1071" y="47"/>
      <point x="1102" y="-8"/>
      <point x="1216" y="-7" type="curve"/>
      <point x="1344" y="-6"/>
      <point x="1515" y="64"/>
      <point x="1658" y="263" type="curve"/>
      <point x="1692" y="299"/>
      <point x="1602" y="378"/>
      <point x="1573" y="330" type="curve"/>
      <point x="1506" y="256"/>
      <point x="1384" y="129"/>
      <point x="1286" y="127" type="curve"/>
      <point x="1116" y="123"/>
      <point x="1294" y="447"/>
      <point x="1330" y="895" type="curve"/>
      <point x="1332" y="929"/>
      <point x="1307" y="963"/>
      <point x="1251" y="961" type="curve"/>
      <point x="1189" y="959"/>
      <point x="1164" y="928"/>
      <point x="1147" y="910" type="curve"/>
      <point x="1130" y="892"/>
      <point x="977" y="708"/>
      <point x="787" y="328" type="curve"/>
      <point x="832" y="581"/>
      <point x="871" y="804"/>
      <point x="870" y="885" type="curve"/>
      <point x="869" y="945"/>
      <point x="840" y="959"/>
      <point x="815" y="959" type="curve"/>
      <point x="685" y="959"/>
      <point x="464" y="641"/>
      <point x="317" y="349" type="curve"/>
      <point x="358" y="729"/>
      <point x="416" y="818"/>
      <point x="419" y="903" type="curve"/>
      <point x="420" y="961"/>
      <point x="383" y="964"/>
      <point x="359" y="964" type="curve"/>
      <point x="266" y="966"/>
      <point x="199" y="867"/>
      <point x="138" y="180" type="curve"/>
      <point x="132" y="88"/>
      <point x="149" y="-8"/>
    </contour>
  </outline>
</glyph>
